<svg viewBox="0 0 250 125" xmlns="http://www.w.org/2000/svg" preserveAspectRatio="xMidYMid meet">
  <defs>
    <radialGradient id="pupil-gradient" cx="50%" cy="50%" r="50%" fx="50%" fy="50%">
      <stop offset="0%" style="stop-color:#FFD700; stop-opacity:1"></stop>
      <stop offset="100%" style="stop-color:#FF6600; stop-opacity:1"></stop>
    </radialGradient>
  </defs>
  <g transform="translate(10, 10)">
    <!-- Main eye shape -->
    <path d="M 0 52.5 C 35 -20, 195 -20, 230 52.5 C 195 125, 35 125, 0 52.5 Z" fill="#003366"></path>

    <!-- Inner iris shape -->
    <path d="M 60 52.5 C 60 30, 170 30, 170 52.5 C 170 75, 60 75, 60 52.5 Z" fill="white"></path>
    <path d="M 70 52.5 C 70 35, 160 35, 160 52.5 C 160 70, 70 70, 70 52.5 Z" fill="#003366"></path>

    <!-- Pupil -->
    <circle cx="115" cy="52.5" r="20" fill="url(#pupil-gradient)"></circle>
    <circle cx="122" cy="45.5" r="5" fill="white" fill-opacity="0.8"></circle>

    <!-- Orange swoosh -->
    <path d="M 25 80 C 115 65, 205 85, 205 85" stroke="#FF6600" fill="transparent" stroke-width="12" stroke-linecap="round"></path>
  </g>
</svg>